<svg width="18" height="23" viewBox="0 0 18 23" fill="none" xmlns="http://www.w3.org/2000/svg">
<path d="M15.0062 12.3175C14.9828 9.52991 17.2876 8.17504 17.3889 8.11275C16.0807 6.21283 14.0562 5.94809 13.3476 5.92473C11.6502 5.74564 9.99941 6.94477 9.1351 6.94477C8.25522 6.94477 6.91593 5.94809 5.4832 5.97145C3.63778 6.00259 1.90138 7.06935 0.959207 8.73568C-0.995221 12.1228 0.460867 17.1062 2.33743 19.8471C3.2796 21.1864 4.36972 22.6892 5.81024 22.6347C7.21182 22.5802 7.7413 21.7392 9.43099 21.7392C11.1129 21.7392 11.6034 22.6347 13.0673 22.6035C14.5779 22.5802 15.5201 21.2565 16.4311 19.9016C17.5134 18.3677 17.9495 16.8493 17.9651 16.7714C17.9261 16.7558 15.0373 15.6501 15.0062 12.3175Z" fill="white"/>
<path d="M12.2425 4.1258C12.9978 3.18362 13.5117 1.89884 13.3716 0.590698C12.2814 0.637418 10.911 1.34599 10.1246 2.2726C9.43156 3.09018 8.80864 4.42169 8.96437 5.67532C10.1946 5.76876 11.4561 5.0524 12.2425 4.1258Z" fill="white"/>
</svg>
