<svg width="25" height="27" viewBox="0 0 25 27" fill="none" xmlns="http://www.w3.org/2000/svg">
<path d="M1.55205 0.485572C1.20635 0.797973 1 1.31904 1 2.01071V1.85435V24.6786V24.5283C1 25.167 1.177 25.6603 1.47674 25.978L1.55325 26.0514V26.0517C1.79586 26.271 2.10697 26.3874 2.46351 26.387C2.8119 26.387 3.20387 26.2758 3.61755 26.0409L18.57 17.5314L23.706 14.6082C24.3583 14.237 24.7245 13.7582 24.7857 13.2705V13.2685C24.7245 12.7796 24.3583 12.3012 23.706 11.93L18.5695 9.00707L3.61759 0.497629C3.20304 0.262296 2.81079 0.150635 2.46147 0.150635C2.10534 0.150635 1.79466 0.266701 1.55214 0.485572H1.55205Z" fill="#00C1FF"/>
<path d="M1.5533 26.0513L1.47674 25.9779C1.177 25.6603 1 25.1669 1 24.5282V24.6785V1.85991V2.01062C1 1.31895 1.20635 0.79788 1.55205 0.485479L14.315 13.2688L1.5533 26.0513Z" fill="url(#paint0_linear_16_2)"/>
<path d="M18.5695 17.5314L14.3146 13.2689L18.5691 9.00705L23.7056 11.9299C24.3579 12.3011 24.724 12.7796 24.7853 13.2684V13.2704C24.724 13.7581 24.3579 14.237 23.7056 14.6081L18.5696 17.5313" fill="url(#paint1_linear_16_2)"/>
<path d="M2.46376 26.3868C2.10726 26.3872 1.79616 26.2707 1.55359 26.0514V26.0511L14.3153 13.2686L18.5702 17.5311L3.61779 26.0406C3.20412 26.2756 2.81214 26.3868 2.46376 26.3868Z" fill="url(#paint2_linear_16_2)"/>
<path d="M14.3152 13.2687L1.55215 0.485364C1.79477 0.266493 2.10545 0.150425 2.46154 0.150425C2.81085 0.150425 3.20315 0.26204 3.61766 0.497419L18.5697 9.00686L14.3152 13.2687" fill="url(#paint3_linear_16_2)"/>
<path d="M2.4639 26.5382C2.10741 26.5382 1.79589 26.4217 1.55327 26.2025L1.55285 26.2029C1.55186 26.2019 1.55079 26.2009 1.54966 26.2001L1.4833 26.1352C1.48121 26.1331 1.47926 26.1307 1.47681 26.1284L1.55332 26.0517C1.79593 26.271 2.10699 26.3875 2.46358 26.387C2.81192 26.387 3.20389 26.2758 3.61757 26.0409L18.57 17.5314L18.6658 17.6274L18.5688 17.6826L3.61752 26.1916C3.24053 26.4056 2.88194 26.5172 2.55804 26.5358C2.52668 26.5374 2.4953 26.5382 2.4639 26.5382" fill="url(#paint4_linear_16_2)"/>
<path d="M0.850946 26.496C0.551204 26.1783 0.374207 25.6854 0.374207 25.0462V24.8959C0.374207 25.5347 0.551204 26.0279 0.850946 26.3456L0.927458 26.419L0.850946 26.496Z" fill="url(#paint5_linear_16_2)"/>
<path d="M18.0395 17.9949L17.9437 17.899L23.0798 14.9757C23.7321 14.6046 24.0983 14.1258 24.1595 13.638C24.1595 13.817 24.1196 13.996 24.0404 14.1701C23.8806 14.5212 23.5604 14.8529 23.0798 15.1265L18.0395 17.995" fill="url(#paint6_linear_16_2)"/>
<path d="M24.1593 13.6361C24.0981 13.1472 23.7319 12.6688 23.0797 12.2976L17.9432 9.37471L18.039 9.27872H18.0394L23.0797 12.1472C23.7988 12.5567 24.1589 13.0964 24.1593 13.6361Z" fill="url(#paint7_linear_16_2)"/>
<path d="M0.374207 2.37842V2.22076C0.374207 2.16391 0.375737 2.10831 0.378658 2.05433V2.05187C0.378658 2.05113 0.378658 2.05034 0.378936 2.04951V2.04343C0.409959 1.49324 0.580557 1.06408 0.850946 0.777507L0.926253 0.853231C0.580557 1.16568 0.374207 1.68675 0.374207 2.37842Z" fill="url(#paint8_linear_16_2)"/>
<path d="M18.5693 9.0072L3.61729 0.49767C3.20278 0.262338 2.81053 0.150723 2.46122 0.150723C2.10509 0.150723 1.7944 0.266789 1.55184 0.48566L1.47653 0.409889C1.50005 0.384953 1.52449 0.3609 1.5498 0.337783C1.55059 0.336948 1.55184 0.336113 1.55263 0.335325C1.79329 0.118124 2.10069 0.00205708 2.45361 -2.95639e-05H2.46122C2.81053 -2.95639e-05 3.20278 0.111632 3.61729 0.347057L18.6655 8.91089L18.6651 8.91121L18.5693 9.0072Z" fill="url(#paint9_linear_16_2)"/>
<defs>
<linearGradient id="paint0_linear_16_2" x1="9.15633" y1="1.61874" x2="-1.84252" y2="12.6353" gradientUnits="userSpaceOnUse">
<stop stop-color="#00A0FF"/>
<stop offset="0.00657" stop-color="#00A1FF"/>
<stop offset="0.2601" stop-color="#00BEFF"/>
<stop offset="0.5122" stop-color="#00D2FF"/>
<stop offset="0.7604" stop-color="#00DFFF"/>
<stop offset="1" stop-color="#00E3FF"/>
</linearGradient>
<linearGradient id="paint1_linear_16_2" x1="25.58" y1="13.1952" x2="0.654163" y2="13.1952" gradientUnits="userSpaceOnUse">
<stop stop-color="#FFE000"/>
<stop offset="0.4087" stop-color="#FFBD00"/>
<stop offset="0.7754" stop-color="#FFA500"/>
<stop offset="1" stop-color="#FF9C00"/>
</linearGradient>
<linearGradient id="paint2_linear_16_2" x1="16.3113" y1="17.3213" x2="-2.32711" y2="35.8533" gradientUnits="userSpaceOnUse">
<stop stop-color="#FF3A44"/>
<stop offset="1" stop-color="#C31162"/>
</linearGradient>
<linearGradient id="paint3_linear_16_2" x1="-1.73724" y1="-1.40982" x2="6.56946" y2="6.86219" gradientUnits="userSpaceOnUse">
<stop stop-color="#32A071"/>
<stop offset="0.0685" stop-color="#2DA771"/>
<stop offset="0.4762" stop-color="#15CF74"/>
<stop offset="0.8009" stop-color="#06E775"/>
<stop offset="1" stop-color="#00F076"/>
</linearGradient>
<linearGradient id="paint4_linear_16_2" x1="16.3017" y1="20.2783" x2="1.37519" y2="35.2289" gradientUnits="userSpaceOnUse">
<stop stop-color="#CC2E36"/>
<stop offset="1" stop-color="#9C0E4E"/>
</linearGradient>
<linearGradient id="paint5_linear_16_2" x1="2.07443" y1="1.98644" x2="-7.6154" y2="11.692" gradientUnits="userSpaceOnUse">
<stop stop-color="#008DE0"/>
<stop offset="0.00657" stop-color="#008DE0"/>
<stop offset="0.2601" stop-color="#00A7E0"/>
<stop offset="0.5122" stop-color="#00B8E0"/>
<stop offset="0.7604" stop-color="#00C4E0"/>
<stop offset="1" stop-color="#00C7E0"/>
</linearGradient>
<linearGradient id="paint6_linear_16_2" x1="24.9542" y1="13.6371" x2="0.0283588" y2="13.6371" gradientUnits="userSpaceOnUse">
<stop stop-color="#E0C500"/>
<stop offset="0.4087" stop-color="#E0A600"/>
<stop offset="0.7754" stop-color="#E09100"/>
<stop offset="1" stop-color="#E08900"/>
</linearGradient>
<linearGradient id="paint7_linear_16_2" x1="24.9541" y1="13.6371" x2="0.0283036" y2="13.6371" gradientUnits="userSpaceOnUse">
<stop stop-color="#FFE840"/>
<stop offset="0.4087" stop-color="#FFCE40"/>
<stop offset="0.7754" stop-color="#FFBC40"/>
<stop offset="1" stop-color="#FFB540"/>
</linearGradient>
<linearGradient id="paint8_linear_16_2" x1="2.06391" y1="2.00407" x2="-7.2691" y2="10.9472" gradientUnits="userSpaceOnUse">
<stop stop-color="#40B8FF"/>
<stop offset="0.00657" stop-color="#40B9FF"/>
<stop offset="0.2601" stop-color="#40CEFF"/>
<stop offset="0.5122" stop-color="#40DDFF"/>
<stop offset="0.7604" stop-color="#40E7FF"/>
<stop offset="1" stop-color="#40EAFF"/>
</linearGradient>
<linearGradient id="paint9_linear_16_2" x1="-1.7562" y1="1.2939" x2="4.90917" y2="7.9701" gradientUnits="userSpaceOnUse">
<stop stop-color="#65B895"/>
<stop offset="0.0685" stop-color="#62BD95"/>
<stop offset="0.4762" stop-color="#50DB97"/>
<stop offset="0.8009" stop-color="#44ED98"/>
<stop offset="1" stop-color="#40F498"/>
</linearGradient>
</defs>
</svg>
